<svg xmlns="http://www.w3.org/2000/svg" viewBox="0 0 100 58.24"><path d="M5.73,31.93c1,.17.84,1.54,2,1.71,1.82.31,2.24-1,2.49-2.49.51-3.17-1-5.55-2.71-8.18a5,5,0,0,1-1-3.86c.39-2.22,1.45-3.73,3.78-3.73a4.36,4.36,0,0,1,.61,0c.76.08,1.29.25,1.15,1-.25,1.37-3.22-1-3.86,3-.31,1.8.42,2.52,1.37,4.15,1.48,2.57,2.77,4.87,2.27,7.89-.4,2.3-1.35,3.64-3.62,3.64-.22,0-.44,0-.67,0-1-.17-2.69-1.12-2.69-2.27,0-.06,0-.14,0-.2A.89.89,0,0,1,5.73,31.93Z"/><path d="M14.22,21.63c.11-4.51.47-7.76,1.2-7.76a.15.15,0,0,1,.11,0c.14.14.79.22,1,.92.51,2.05,1.26,5.77,2.92,8.12a34.21,34.21,0,0,0,1.82-3l.14-.23a34.25,34.25,0,0,0,2.4-5,.82.82,0,0,1,.82-.5,1.56,1.56,0,0,1,1,.42c-.2,6.22-.09,12.46-.23,18.68l0,1.34a1,1,0,0,1-.9.67,1,1,0,0,1-.64-.39l0-1.65c.12-5.07-.11-10.14.09-15.21-.67,1.21-1.35,2.41-1.93,3.67-.26.42-1.4,2.72-1.66,3.28-.16.36-.92,1.23-1.34.28C16.12,18.88,16,18.88,16,18.88a140.6,140.6,0,0,0-.73,15.37.66.66,0,0,1-.59.54,1.28,1.28,0,0,1-.78-.4Z"/><path d="M28.61,15c.17-2.58,1.85-1.91,2.32,0,.7,2.8,1.23,5.35,4.29,20.19,0,.61-.84,1.09-1.35.19l-1-5-3.78.56c-.22,1.32-.42,3.81-.47,5-.06.67-1.26.5-1.23,0Zm.53,13.05c0,.19-.06,1.28-.06,1.51l3.5-.51L29.84,16.61C29.73,18.32,29.22,26.33,29.14,28.07Z"/><path d="M36.5,13.28c.45,0,.82.56.93,1,.22,6.33.19,12.74.75,19.1a14.4,14.4,0,0,1,3.36-.59c.51,0,1,.14,1,.7a.74.74,0,0,1-.56.81c-1,.34-2.22.28-3.19.56a4.89,4.89,0,0,1-1.21.37,1.08,1.08,0,0,1-.87-.76c-.33-3.36-.19-7-.36-10.28l-.37-6.91V13.7C36.08,13.39,36.25,13.28,36.5,13.28Z"/><path d="M44,13.28c.45,0,.81.56.92,1,.23,6.33.2,12.74.76,19.1a14.4,14.4,0,0,1,3.36-.59c.5,0,1,.14,1,.7a.73.73,0,0,1-.56.81c-.95.34-2.21.28-3.19.56a4.89,4.89,0,0,1-1.21.37,1,1,0,0,1-.86-.76c-.34-3.36-.2-7-.37-10.28l-.36-6.91V13.7C43.59,13.39,43.76,13.28,44,13.28Z"/><path d="M88.57,53.32c0-22.27-19.35-28.54-19.35-28.54" style="fill:none;stroke:#000;stroke-linecap:round;stroke-miterlimit:10"/><polyline points="84.14 48.73 88.57 53.32 92.36 48.73" style="fill:none;stroke:#000;stroke-linecap:round;stroke-linejoin:round"/></svg>