<svg xmlns="http://www.w3.org/2000/svg" viewBox="0 0 979.45 314.92"><path d="M962.53,16.22l.4,285.67h-946V57.35s65.34.25,105.42,4.79c38.74,4.39,69.08,7.59,104.62,2.4C257.19,60.12,295.25,21,332.39,18.22c26.58-2,68.28,14.75,105.42,16,36.34,1.2,68.5-7.1,104.62-11.18,45.93-5.19,62.55-4.47,105.43-4,36.34.4,58,7,104.62,10.39,37.94,2.79,79.07,2.87,105.42,2.39,12.34-.22,36.29-.94,58.17-1.65Z" style="fill:#f5f5f5"/><circle cx="962.53" cy="28.6" r="3.19" style="fill:#1dafed"/><circle cx="962.53" cy="37.92" r="3.19" style="fill:#75d04d"/><circle cx="962.53" cy="16.22" r="3.19" style="fill:#91188f"/><path d="M16.92,57.35s65.34.25,105.42,4.79c38.74,4.39,69.08,7.59,104.62,2.4C257.19,60.12,295.25,21,332.39,18.22c26.58-2,68.28,14.75,105.42,16,36.34,1.2,68.5-7.1,104.62-11.18,45.93-5.19,62.55-4.47,105.43-4,36.34.4,58,7,104.62,10.39,37.94,2.79,79.07,2.87,105.42,2.39,26.17-.47,104.63-3.19,104.63-3.19" style="fill:none;stroke:#1dafed;stroke-miterlimit:10;stroke-width:2px"/><path d="M16.92,123.87S86.8,130.43,122.74,132c31.16,1.39,67.09,19.17,104.62,9.59,43.92-11.21,63.1-55.91,105.43-61.5,44.12-5.83,63.09,13.58,104.62,24.76,27.17,7.32,67.89,36.74,104.63,41.53,43.23,5.64,79.45-3.68,105.42-11.18,35.94-10.38,67.88-38.34,105.42-50.32,33-10.52,71.88-8,105.42-16,26.45-6.3,104.23-31,104.23-31" style="fill:none;stroke:#75d04d;stroke-miterlimit:10;stroke-width:2px"/><path d="M16.92,118.75S76.42,132.82,122.34,138c27.45,3.11,65.09,34.75,104.62,21.57,42.65-14.22,62.28-99.18,105.43-111.81,39.53-11.58,65,17.4,105.42,31.14,41.13,14,67.77,34.16,104.62,39.14,44.33,6,75.22.36,105.83-8.39,39.13-11.18,64.69-39.93,105-52.31,27-8.3,69.08-6.79,104.22-12.38,26.84-4.27,105.43-28.75,105.43-28.75" style="fill:none;stroke:#91188f;stroke-miterlimit:10;stroke-width:2px"/><circle cx="16.92" cy="57.35" r="3.19" style="fill:#1dafed"/><circle cx="122.34" cy="62.14" r="3.19" style="fill:#1dafed"/><circle cx="226.96" cy="64.54" r="3.19" style="fill:#1dafed"/><circle cx="332.39" cy="18.22" r="3.19" style="fill:#1dafed"/><circle cx="332.39" cy="47.77" r="3.19" style="fill:#91188f"/><circle cx="332.39" cy="79.97" r="3.19" style="fill:#75d04d"/><circle cx="437.81" cy="34.19" r="3.19" style="fill:#1dafed"/><circle cx="437.81" cy="78.91" r="3.19" style="fill:#91188f"/><circle cx="437.81" cy="104.81" r="3.19" style="fill:#75d04d"/><circle cx="542.43" cy="23.01" r="3.19" style="fill:#1dafed"/><circle cx="542.43" cy="117.9" r="3.19" style="fill:#91188f"/><circle cx="542.43" cy="146.62" r="3.19" style="fill:#75d04d"/><circle cx="647.86" cy="19.01" r="3.19" style="fill:#1dafed"/><circle cx="647.86" cy="109.77" r="3.19" style="fill:#91188f"/><circle cx="647.86" cy="135.12" r="3.19" style="fill:#75d04d"/><circle cx="752.48" cy="29.4" r="3.19" style="fill:#1dafed"/><circle cx="752.48" cy="57.54" r="3.19" style="fill:#91188f"/><circle cx="752.48" cy="85.14" r="3.19" style="fill:#75d04d"/><circle cx="857.9" cy="31.79" r="3.19" style="fill:#1dafed"/><circle cx="857.9" cy="44.74" r="3.19" style="fill:#91188f"/><circle cx="857.9" cy="69.11" r="3.19" style="fill:#75d04d"/><circle cx="16.92" cy="118.85" r="3.19" style="fill:#91188f"/><circle cx="122.34" cy="138.01" r="3.19" style="fill:#91188f"/><circle cx="122.34" cy="132.14" r="3.19" style="fill:#75d04d"/><circle cx="226.96" cy="159.58" r="3.19" style="fill:#91188f"/><circle cx="226.96" cy="141.85" r="3.19" style="fill:#75d04d"/><circle cx="16.92" cy="124.44" r="3.19" style="fill:#75d04d"/><path d="M874.25,251.64,864,219.26H850.13l-10.26,32.33h9.85l12.13-9.89,2.64,9.89Zm-21.88-10.22L857.06,224l4.7,17.37Z" style="fill:#e85652"/><path d="M708.09,235c3.1-.68,4.88-3.37,4.88-7.39s-3.1-8.2-9.44-8.2H687.62v32.32H705.5c6.33,0,8.8-4.1,8.8-8.8A7.82,7.82,0,0,0,708.09,235Zm-12.81-8.62h6.29a2.72,2.72,0,1,1,0,5.43h-6.29Zm0,18.29v-5.79h7.3a2.94,2.94,0,0,1,3.23,2.91c0,1.74-1.23,2.92-3.23,2.92C702.58,244.62,695.28,244.62,695.28,244.62Z" style="fill:#e85652"/><path d="M775.72,228c0-1.68,1.91-2.41,4.28-2.46a17.24,17.24,0,0,1,10,3.28l3.1-7c-3.55-2.32-8.16-3.19-12.81-3.19-8.21,0-13,4.83-13,10.17,0,13.72,16.92,8.62,16.92,13.91,0,1.5-1.42,2.64-4.24,2.64a15.92,15.92,0,0,1-9.85-3.28l-3.29,7.07c3.29,2.23,7.62,3.42,12.82,3.42,8.61,0,12.9-4.47,12.86-10.86C792.54,228.75,775.72,232.76,775.72,228Z" style="fill:#e85652"/><path d="M732,251.59v-2.82a10.7,10.7,0,0,1-8.07,3.37c-5.33,0-7.7-3-7.7-7.3V228.2h7.47v13.64c0,2.82,1.46,3.83,3.93,3.83a5.53,5.53,0,0,0,4.46-2.33V228.16h7.48v23.43Z" style="fill:#e85652"/><path d="M743.34,254.1a3.78,3.78,0,0,0,1.87.46c1.69,0,2.78-.37,3.19-1.33l.5-1.27-9.3-23.8h7.84L752.73,243l5.34-14.86H766L755.42,255c-1.91,5-5.42,6.06-9.89,6.11a14.23,14.23,0,0,1-3.24-.41Z" style="fill:#e85652"/><path d="M794.05,239.92a12.16,12.16,0,0,1,12.49-12.31c6.93,0,12,5.15,12,13.09v1.59H801.89c.45,2.19,2.46,4.2,5.88,4.2,1.64,0,4.51-.73,5.79-2l3.19,4.7c-2.37,2.09-6.2,3.14-9.8,3.14C799.65,252.19,794.05,247.49,794.05,239.92Zm12.44-6.52a4.69,4.69,0,0,0-4.83,4.06h9.67C811.14,235.77,810,233.4,806.49,233.4Z" style="fill:#e85652"/><polygon points="820.72 251.59 820.72 219.26 828.2 219.26 828.2 251.59 820.72 251.59" style="fill:#e85652"/><polygon points="830.8 251.59 830.8 219.26 838.28 219.26 838.28 251.59 830.8 251.59" style="fill:#e85652"/><path d="M890.71,251.59v-2.73a8.82,8.82,0,0,1-6.93,3.28c-5.74,0-10.39-4.38-10.39-12.36,0-7.66,4.51-12.31,10.39-12.31a8.68,8.68,0,0,1,6.93,3.33V219.17h7.44v32.42Zm0-8.11v-7.21a6.15,6.15,0,0,0-4.51-2.1c-3,0-5.2,2.19-5.2,5.66s2.19,5.7,5.2,5.7A6.17,6.17,0,0,0,890.71,243.48Z" style="fill:#e85652"/><path d="M899.42,248.63l3.15-5.2a14.59,14.59,0,0,0,8.25,3.15c2.28,0,3.19-.73,3.19-1.78,0-3.1-13.63-.05-13.63-9.49,0-4.14,3.56-7.7,10-7.7a16.38,16.38,0,0,1,9.8,3.14l-2.87,5a10.46,10.46,0,0,0-6.88-2.56c-1.74,0-3,.73-3,1.69,0,2.73,13.64,0,13.64,9.67,0,4.46-4,7.75-10.72,7.75C906.26,252.19,901.88,250.82,899.42,248.63Z" style="fill:#e85652"/><path d="M688.93,207.93v-9.47H692a3.35,3.35,0,0,1,1.69.39,2.57,2.57,0,0,1,1,1.05,3.15,3.15,0,0,1,.34,1.49,3.2,3.2,0,0,1-.34,1.49,2.55,2.55,0,0,1-1,1.05,3.42,3.42,0,0,1-1.68.38h-2.41v-.77H692a2.56,2.56,0,0,0,1.24-.28,1.86,1.86,0,0,0,.73-.77,2.66,2.66,0,0,0,0-2.21,1.78,1.78,0,0,0-.73-.76,2.49,2.49,0,0,0-1.25-.28h-2.17v8.69Z"/><path d="M704.83,203.2a5.9,5.9,0,0,1-.52,2.57,4,4,0,0,1-1.45,1.69,4,4,0,0,1-4.24,0,4,4,0,0,1-1.45-1.69,6.52,6.52,0,0,1,0-5.15,4.07,4.07,0,0,1,1.45-1.69,4,4,0,0,1,4.24,0,4.15,4.15,0,0,1,1.45,1.69A5.91,5.91,0,0,1,704.83,203.2Zm-.84,0a5.14,5.14,0,0,0-.42-2.18,3.28,3.28,0,0,0-1.16-1.39,3.15,3.15,0,0,0-3.34,0,3.21,3.21,0,0,0-1.16,1.39,5.74,5.74,0,0,0,0,4.36,3.33,3.33,0,0,0,1.16,1.39,3.15,3.15,0,0,0,3.34,0,3.21,3.21,0,0,0,1.16-1.39A4.88,4.88,0,0,0,704,203.2Z"/><path d="M708.57,207.93,706,198.46h.88l2.14,8.15h.08l2.14-8.15h1l2.15,8.15h.07l2.15-8.15h.88l-2.6,9.47H714l-2.2-8h-.06l-2.19,8Z"/><path d="M719,207.93v-9.47h5.49v.78H719.9v3.57h4.34v.77H719.9v3.58h4.72v.77Z"/><path d="M726.76,207.93v-9.47h3.06a3.46,3.46,0,0,1,1.69.37,2.4,2.4,0,0,1,1,1,3.07,3.07,0,0,1,.34,1.47,3,3,0,0,1-.34,1.46,2.44,2.44,0,0,1-1,1,3.53,3.53,0,0,1-1.67.35h-2.61v-.79h2.58a2.75,2.75,0,0,0,1.23-.24,1.62,1.62,0,0,0,.74-.7,2.25,2.25,0,0,0,.24-1.07,2.34,2.34,0,0,0-.24-1.09,1.72,1.72,0,0,0-.74-.72,2.69,2.69,0,0,0-1.24-.25h-2.17v8.69Zm4.18-4.27,2.33,4.27h-1L730,203.66Z"/><path d="M735,207.93v-9.47h5.5v.78h-4.63v3.57h4.34v.77h-4.34v3.58h4.72v.77Z"/><path d="M745.48,207.93h-2.77v-9.47h2.94A4.48,4.48,0,0,1,748,199a3.64,3.64,0,0,1,1.48,1.62,6.52,6.52,0,0,1,0,5.08,3.74,3.74,0,0,1-1.53,1.64A5,5,0,0,1,745.48,207.93Zm-1.91-.77h1.86a4,4,0,0,0,2.05-.48,3,3,0,0,0,1.23-1.38,4.94,4.94,0,0,0,.41-2.13,5,5,0,0,0-.4-2.1,3,3,0,0,0-1.18-1.36,3.77,3.77,0,0,0-1.94-.47h-2Z"/><path d="M755.71,207.93v-9.47h3.2a3.22,3.22,0,0,1,1.54.33,2.2,2.2,0,0,1,.93.88,2.54,2.54,0,0,1,.31,1.27,2.36,2.36,0,0,1-.2,1,1.67,1.67,0,0,1-.54.68,2.17,2.17,0,0,1-.76.38v.07a1.78,1.78,0,0,1,.88.32,2.24,2.24,0,0,1,.71.81,2.55,2.55,0,0,1,.28,1.24,2.59,2.59,0,0,1-.32,1.28,2.17,2.17,0,0,1-1,.88,3.74,3.74,0,0,1-1.67.32Zm.87-5.19H759a2.06,2.06,0,0,0,1-.23,1.69,1.69,0,0,0,.66-.64,1.89,1.89,0,0,0,.23-.93,1.63,1.63,0,0,0-.49-1.23,2,2,0,0,0-1.46-.47h-2.33Zm0,4.42h2.51a2.29,2.29,0,0,0,1.62-.49,1.58,1.58,0,0,0,.52-1.22,1.91,1.91,0,0,0-.26-1,1.82,1.82,0,0,0-.73-.7,2.23,2.23,0,0,0-1.12-.26h-2.54Z"/><path d="M763.26,198.46h1l2.8,4.5h.09l2.8-4.5h1l-3.41,5.37v4.1h-.86v-4.1Z"/></svg>