<svg xmlns="http://www.w3.org/2000/svg" viewBox="0 0 100 72.42"><path d="M25.71,43.75c.45,0,.81.56.93,1,.22,6.33.19,12.74.75,19.1a14.4,14.4,0,0,1,3.36-.59c.51,0,.95.14.95.7a.73.73,0,0,1-.56.81c-.95.34-2.21.28-3.19.56a5.12,5.12,0,0,1-1.2.36,1.05,1.05,0,0,1-.87-.75c-.34-3.36-.2-7-.36-10.28l-.37-6.91V44.17C25.29,43.86,25.46,43.75,25.71,43.75Z"/><path d="M34.36,45.49c.17-2.58,1.85-1.91,2.33,0,.7,2.8,1.23,5.34,4.28,20.18,0,.62-.84,1.1-1.34.2l-1-5-3.78.56c-.22,1.32-.42,3.81-.48,5,0,.68-1.26.51-1.23,0Zm.54,13c0,.2-.06,1.29-.06,1.52l3.5-.51L35.6,47.08C35.48,48.79,35,56.8,34.9,58.53Z"/><path d="M42.54,54.17c0-.87-.14-6-.2-7.28,0-.28-.16-2.75-.19-3.06v-.11c0-.64.73-.81,1.29-.81,3.86,0,5.23,2.77,5.23,6a6.07,6.07,0,0,1-2.77,5.43c3.22,1.43,4,6,4,9.13,0,.51-.3.7-.81.7-.33,0-.47,0-.61-.45-.14-2.1-.68-8-3.92-8l-.28,0c-.31,3.16-.06,6.35-.26,9.54a.89.89,0,0,1-1.48,0C42.57,63.57,42.57,55.85,42.54,54.17Zm1.54-.68c2-.39,3.08-2.57,3.08-4.34,0-1.48-.62-4.56-2.63-4.56-.11,0-1,0-1,.22Z"/><path d="M50.66,54.11c0-2.21.5-6.5,2.94-7.67,1.4-.67,5-.39,5,1.85,0,.33-.14.7-.61.7-1,0-1.38-1.52-2.81-1.52h-.11c-2.6.14-3,4.06-3,6.16v.56a41,41,0,0,0,.73,7.51c.28,1.31,1,2.71,2.66,2.71h.14c2.55-.14,2.63-3.47,2.55-5.06l-.23-4.15a22.39,22.39,0,0,1-2.52.14c-.25-.17-.33-.87-.33-.89,0-.84,1.93-.68,3.75-.7.84.22.73,1.62.81,3.36v.28c.17,3,.42,8.23-3.64,8.42a3.49,3.49,0,0,1-.56,0C51.64,66,50.66,61.42,50.66,54.11Z"/><path d="M61.92,62.45V56.91c0-4-.4-6.58-.4-10.58V44.9c4.48-.37,5-.06,5,.56,0,.19-.14.61-.34.7H63.12c-.2,0-.2.14-.2.22,0,3,.28,5.15.45,8.21a31.92,31.92,0,0,0,3.25,0c.95,0,1.6,1.66.31,1.66H63.37l.06,6.55c.67.17,4.23-.53,4.23.7a.69.69,0,0,1-.54.73H67c-1,.08-5,.39-5-.42Z"/><path d="M6.43,8.84C28.7,8.84,35,28.18,35,28.18" style="fill:none;stroke:#000;stroke-linecap:round;stroke-miterlimit:10"/><polyline points="11.01 13.27 6.43 8.84 11.01 5.05" style="fill:none;stroke:#000;stroke-linecap:round;stroke-linejoin:round"/></svg>