<?xml version="1.0" encoding="UTF-8"?>
<!-- Generator: Adobe Illustrator 26.0.3, SVG Export Plug-In . SVG Version: 6.00 Build 0)  -->
<svg version="1.1" id="Livello_1" xmlns="http://www.w3.org/2000/svg" xmlns:xlink="http://www.w3.org/1999/xlink" x="0px" y="0px" viewBox="0 0 104.1 41" style="enable-background:new 0 0 104.1 41;" xml:space="preserve">
<style type="text/css">
	.st0{fill:none;}
	.st1{fill:#E50087;}
</style>
<path class="st0" d="M17.8,30.8c2.5,2.3,5.2,2.8,7.2,1.1c2.2-2,2.5-5.4,0.7-7.8c-1.6-2.4-5-3.5-8.5-2.8c-1,0.2-2,0.5-2.9,1  C14,25.5,15.3,28.7,17.8,30.8z"/>
<path class="st1" d="M31.3,11v-1c-8.3,0-15.1,3.7-17.4,9.5c-0.3,0.7-0.5,1.4-0.6,2.2c-3.3,1.9-7.5,6-9.4,15.1l-2.2-3.5l-0.9,0.5  l3.2,5l4.9-3.5l-0.6-0.8L4.9,37c1.7-8.2,5.3-12.2,8.3-14.1c0,3.3,1.4,6.5,3.9,8.7c3.4,3.2,6.6,2.7,8.5,1.1c2.6-2.4,3-6.3,0.9-9.1  c-1.8-2.7-5.6-4-9.5-3.2c-0.9,0.2-1.7,0.5-2.5,0.8c0.1-0.4,0.2-0.8,0.4-1.2C17,14.5,23.4,11,31.3,11z M17.2,21.3  c3.5-0.7,6.9,0.4,8.5,2.8c1.8,2.4,1.5,5.8-0.7,7.8c-2,1.7-4.6,1.3-7.1-1.1c-2.5-2.1-3.8-5.3-3.6-8.5C15.2,21.8,16.2,21.5,17.2,21.3z  "/>
<path class="st1" d="M40.1,14.7c0.8,0.1,0.6,1.1,1.4,1.2c1.3,0.2,1.6-0.7,1.8-1.8c0.4-2.3-0.7-4-1.9-5.8c-0.6-0.8-0.8-1.8-0.7-2.8  c0.3-1.6,1-2.7,2.7-2.7c0.1,0,0.3,0,0.4,0c0.5,0.1,0.9,0.2,0.8,0.7c-0.2,1-2.3-0.7-2.8,2.1c-0.2,1.3,0.3,1.8,1,3  c1.1,1.8,2,3.5,1.6,5.6c-0.3,1.6-1,2.6-2.6,2.6c-0.2,0-0.3,0-0.5,0c-0.7-0.1-1.9-0.8-1.9-1.6v-0.1C39.5,14.9,39.8,14.7,40.1,14.7z"/>
<path class="st1" d="M47.5,2.6c0.1-1.8,1.3-1.4,1.7,0c0.5,2,0.9,3.8,3.1,14.4c0,0.4-0.6,0.8-1,0.1l-0.7-3.6L47.8,14  c-0.2,1.2-0.3,2.4-0.3,3.6c0,0.5-0.9,0.4-0.9,0L47.5,2.6z M47.9,11.9c0,0.1,0,0.9,0,1.1l2.5-0.4l-2-8.9C48.3,5,48,10.7,47.9,11.9z"/>
<path class="st1" d="M51.8,2.5L51.8,2.5c0-0.4,0.4-0.5,0.7-0.5c0.6,0,0.7,0.4,0.8,1c0.6,3,1.2,6.3,2.4,11.1l2-11.4  c0.1-0.3,0.3-0.5,0.6-0.5s0.6,0.1,0.6,0.5l-2.2,11.5c-0.1,0.3-0.5,2.9-0.9,2.9c0,0,0,0-0.1,0c-0.2,0-0.4,0-0.5-0.3  C54,12.1,53.2,7.2,51.8,2.5z"/>
<path class="st1" d="M61.2,14.7v-4c0-2.9-0.3-4.7-0.3-7.6v-1c3.2-0.3,3.6,0,3.6,0.4c0,0.1-0.1,0.4-0.2,0.5H62  c-0.1,0-0.1,0.1-0.1,0.2c0,2.1,0.2,3.7,0.3,5.9c0.8,0,1.5,0,2.3,0c0.7,0,1.2,1.2,0.2,1.2h-2.6V15c0.5,0.1,3-0.4,3,0.5  c0,0.2-0.1,0.5-0.4,0.5h-0.1c-0.7,0.1-3.6,0.3-3.6-0.3L61.2,14.7z"/>
<path class="st1" d="M80.1,5.4V5.2c0.3-1.5,0.9-3.8,2.5-3.8c2.6,0,3,2.2,3.2,4.4c0.1,0.8,0.3,3,0.3,3.1S86,12.1,85.9,13  c-0.1,1.6-0.8,4-2.8,4c-1.4,0-2.2-1.5-2.5-2.7c-0.6-2-0.9-4.2-0.8-6.3C79.8,7.1,79.9,6.2,80.1,5.4z M83.2,16.1c0.9,0,1.4-2.4,1.5-3  l0.1-1C85,11.1,85,10,85,9c0-1.2-0.1-2.5-0.3-3.7c-0.1-1-0.5-3-2-3c-0.5,0-1.2,2.1-1.3,2.5c-0.3,1-0.4,2-0.5,3c0,0,0,0.5,0,0.7  C80.9,9.6,81.3,16.1,83.2,16.1z"/>
<path class="st1" d="M90.9,15c0.2-0.4,1.9-3.2,2.1-3.5l4.9-8.7c0.2-0.2,0.3-0.1,0.5,0c0.3,0.1,0.3,0.5,0.2,0.7l-2.4,4.3L91.3,16  c-0.2,0.1-0.4,0.1-0.6,0s-0.1-0.6,0-0.8C90.8,15.2,90.8,15.1,90.9,15z"/>
<path class="st1" d="M90.9,2.6L90.9,2.6c-2.1,0-2.1,2.8-2.1,3.8c0,2.9,0.7,4.4,2.1,4.4c1.1,0,1.6-1.2,1.7-2.2  C92.8,4.8,92.3,2.7,90.9,2.6z M90.8,9.9c-0.7,0-1-1.2-1-3.5c0-0.3,0-0.6,0-0.9c0-0.6,0.3-1.9,0.8-1.9s0.9,2,0.9,3.4  C91.6,9.1,91.2,9.9,90.8,9.9z"/>
<path class="st1" d="M97.2,9.5L97.2,9.5c-2.2,0-2.2,2.8-2.2,3.8c0,2.9,0.7,4.4,2.1,4.4c1.1,0,1.6-1.2,1.7-2.2  C99.1,11.7,98.6,9.7,97.2,9.5z M97.1,16.8c-0.7,0-1-1.2-1-3.5c0-0.3,0-0.6,0-0.9c0-0.6,0.3-1.9,0.8-1.9s0.9,2,0.9,3.3  C97.8,16,97.5,16.8,97.1,16.8z"/>
<path class="st1" d="M76.2,13.2l-0.1-0.1c-0.8,0.1-2.3,0.4-3.2,0.4c-0.3,0-0.6-0.4-0.6-0.7c0-0.1,0.1-0.5,0.1-0.5  c0.1-0.3,0.3-1.5,0.3-1.6c0.1-1.3,0.8-7.5,0.9-8.9C73.7,1.6,73.7,1,74,1c0.6,0,0.9,0.2,0.9,0.8v0.4c-0.3,3.3-0.8,6.7-1.2,9.9  c0.1,0,0.3,0,0.3,0c0.7,0,1.5-0.2,2.2-0.3h0.1V9.1c0-0.3,0.3-0.3,0.5-0.3c1.5,0,0.3,2.3,0.9,3c0.3,0.4,1.1-0.1,1.1,0.7  c0,0.4-0.7,0.6-1.1,0.7l0,0v4.2c0,0.1-0.4,0.3-0.5,0.3c-0.2,0-0.5-0.1-0.6-0.3C76.3,15.9,76.5,14.5,76.2,13.2z"/>
</svg>